<?xml version="1.0" encoding="utf-8"?>
<svg viewBox="0 0 500 670" xmlns="http://www.w3.org/2000/svg">
  <rect x="255" y="225" width="30" height="220" style="fill: rgb(66, 176, 39); stroke: rgb(66, 176, 39);"/>
  <rect width="21.429" height="15" style="fill: rgb(255, 255, 255); stroke: rgb(66, 176, 39);" y="234" x="259.286"/>
  <rect x="260.118" y="420" width="19.765" height="10.248" style="fill: rgb(255, 255, 255); stroke: rgb(66, 176, 39);"/>
  <rect x="92.143" y="230.114" width="30" height="225" style="stroke: rgb(66, 176, 39); fill: rgb(66, 176, 39);" transform="matrix(0.9961950182914734, 0.08715500682592392, -0.08715500682592392, 0.9961950182914734, 103.57122802734375, -19.26878547668457)"/>
  <rect width="21.429" height="15.341" style="stroke: rgb(66, 176, 39); fill: rgb(255, 255, 255);" y="239.318" x="96.428" transform="matrix(0.9961950182914734, 0.08715500682592392, -0.08715500682592392, 0.9961950182914734, 103.57122802734375, -19.26878547668457)"/>
  <rect x="97.26" y="429.546" width="19.765" height="10.481" style="stroke: rgb(66, 176, 39); fill: rgb(255, 255, 255);" transform="matrix(0.9961950182914734, 0.08715500682592392, -0.08715500682592392, 0.9961950182914734, 103.57122802734375, -19.26878547668457)"/>
  <rect x="215" y="225" width="30" height="220" style="stroke: rgb(66, 176, 39); fill: rgb(66, 176, 39);"/>
  <rect width="21.429" height="15" style="stroke: rgb(66, 176, 39); fill: rgb(255, 255, 255);" y="234" x="219.286"/>
  <rect x="220.118" y="420" width="19.765" height="10.248" style="stroke: rgb(66, 176, 39); fill: rgb(255, 255, 255);"/>
  <g transform="matrix(0.42857101559638977, 0, 0, 1.0227270126342773, 202.85723876953122, -10.113577842712402)">
    <rect x="215" y="225" width="70" height="220" style="stroke: rgb(66, 176, 39); stroke-width: 1.37808px; paint-order: stroke; fill: rgb(66, 176, 39);"/>
    <rect width="50" height="15" style="stroke: rgb(66, 176, 39); stroke-width: 1.37808px; paint-order: stroke; fill: rgb(255, 255, 255);" y="234" x="225"/>
    <rect x="226.941" y="420" width="46.119" height="10.248" style="stroke: rgb(66, 176, 39); stroke-width: 1.37808px; paint-order: stroke; fill: rgb(255, 255, 255);"/>
  </g>
  <path d="M 423.915 334.758 C 423.892 381.668 404.398 424.222 372.948 454.97 C 341.475 485.694 297.926 504.758 249.915 504.758 C 201.904 504.758 158.355 485.694 126.882 454.97 C 95.432 424.222 75.915 381.668 75.915 334.758 C 75.915 287.848 95.432 245.294 126.882 214.546 C 158.355 183.822 201.904 164.758 249.915 164.758 C 297.926 164.758 341.475 183.822 372.948 214.546 C 388.677 229.919 401.44 248.258 410.24 268.582 C 414.638 278.745 418.063 289.437 420.38 300.496 C 421.538 306.025 422.423 311.665 423.016 317.375 C 423.313 320.231 423.538 323.115 423.688 326.009 C 423.764 327.457 423.82 328.913 423.858 330.371 C 423.877 331.099 423.891 331.83 423.901 332.561 C 423.905 332.926 423.909 333.293 423.911 333.658 C 423.914 334.024 423.915 334.755 423.915 334.755 C 423.915 334.756 422.915 334.76 422.915 334.761 C 422.915 334.761 422.914 334.029 422.911 333.664 C 422.909 333.301 422.906 332.938 422.901 332.574 C 422.891 331.846 422.877 331.121 422.859 330.397 C 422.822 328.945 422.766 327.502 422.69 326.062 C 422.541 323.178 422.317 320.321 422.022 317.48 C 421.431 311.794 420.554 306.205 419.401 300.7 C 417.095 289.691 413.702 279.096 409.322 268.978 C 400.563 248.745 387.917 230.56 372.249 215.259 C 340.926 184.637 297.725 165.756 249.915 165.756 C 202.105 165.756 158.904 184.637 127.581 215.259 C 96.236 245.859 76.915 288.055 76.915 334.758 C 76.915 381.461 96.236 423.657 127.581 454.257 C 158.904 484.879 202.105 503.76 249.915 503.76 C 297.725 503.76 340.926 484.879 372.249 454.257 C 403.594 423.657 422.938 381.461 422.915 334.758 L 423.915 334.758 Z" style="stroke: rgb(66, 176, 39); stroke-width: 10px;"/>
</svg>